<svg width="26" height="42" viewBox="0 0 26 42" fill="none" xmlns="http://www.w3.org/2000/svg">
<path fill-rule="evenodd" clip-rule="evenodd" d="M23.1 0H2.1C0.941638 0.00345954 0.00345954 0.941638 0 2.1V39.9C0.00345954 41.0584 0.941638 41.9965 2.1 42H23.1C24.2584 41.9965 25.1965 41.0584 25.2 39.9V2.1C25.1965 0.941638 24.2584 0.00345954 23.1 0ZM13.5513 38.7898C13.2862 39.0514 12.9297 39.1995 12.5573 39.2028C12.1869 39.1999 11.8324 39.0516 11.5703 38.7898C11.306 38.5279 11.1574 38.1713 11.1574 37.7993C11.1574 37.4273 11.306 37.0707 11.5703 36.8088C12.1293 36.2914 12.9923 36.2914 13.5513 36.8088C13.8101 37.0741 13.9558 37.4294 13.958 37.8C13.9576 38.1705 13.8115 38.526 13.5513 38.7898ZM2.8 33.6H22.4V4.2H2.8V33.6Z" fill="#0557FF"/>
</svg>
