<svg width="41" height="41" viewBox="0 0 41 41" fill="none" xmlns="http://www.w3.org/2000/svg">
<path fill-rule="evenodd" clip-rule="evenodd" d="M34.0517 0L30.0231 4.03026L36.9714 10.9815L41 6.95128L34.0517 0ZM11.459 35.9406L0 41L5.0573 29.5362L11.459 35.9406Z" fill="#0557FF" fill-opacity="0.4"/>
<path fill-rule="evenodd" clip-rule="evenodd" d="M35.2806 12.8125L28.3401 5.82969L21.4639 12.6844L8.73981 0L0 8.7125L12.6599 21.3969L6.61912 27.4188L13.5596 34.4016L19.6003 28.3797L32.1317 41L41 32.1594L28.4044 19.6031L35.2806 12.8125ZM12.0172 17.1688L14.9734 14.2219L13.174 12.4281L10.2179 15.375L7.96865 13.1328L9.89655 11.2109L8.09718 9.41719L6.16928 11.3391L3.66301 8.77656L8.73981 3.71563L19.6003 14.4781L14.4592 19.6031L12.0172 17.1688ZM32.1317 37.3484L37.337 32.1594L26.605 21.525L21.3997 26.65L24.0987 29.3406L26.0909 27.3547L27.8903 29.1484L25.8981 31.1344L27.9545 33.1844L30.5893 30.5578L32.3887 32.3516L29.7539 34.9781L32.1317 37.3484Z" fill="#0557FF"/>
</svg>
