<svg width="37" height="41" viewBox="0 0 37 41" fill="none" xmlns="http://www.w3.org/2000/svg">
<path d="M35.7241 38.4545H34.4483V13H29.3448V38.4545H25.5172V19.3636H20.4138V38.4545H16.5862V25.7273H11.4828V38.4545H7.65517V32.0909H2.55172V38.4545H1.27586C0.571223 38.4545 0 39.0244 0 39.7273C0 40.4302 0.571223 41 1.27586 41H35.7241C36.4288 41 37 40.4302 37 39.7273C37 39.0244 36.4288 38.4545 35.7241 38.4545Z" fill="#0557FF"/>
<path opacity="0.4" d="M3.26445 28C3.53802 28 3.80421 27.9108 4.02306 27.7457L32.092 5.42961L31.7759 8.79927C31.7406 9.13686 31.841 9.47462 32.0548 9.73733C32.2685 10 32.5778 10.1659 32.9138 10.198H33.0402C33.692 10.2013 34.2394 9.70578 34.3046 9.05359L35 1.55132L27.5402 0.0254321C26.842 -0.115022 26.1627 0.34042 26.023 1.04269C25.8834 1.74496 26.3362 2.42812 27.0345 2.56857L30.7012 3.33152L2.50583 25.7112C2.07045 26.0396 1.89287 26.6113 2.06496 27.1305C2.23706 27.6498 2.72023 28 3.26445 28Z" fill="#0557FF"/>
</svg>
