<svg width="38" height="38" viewBox="0 0 38 38" fill="none" xmlns="http://www.w3.org/2000/svg">
<path opacity="0.5" fill-rule="evenodd" clip-rule="evenodd" d="M35.9953 28.4987C35.9947 28.9408 35.9553 29.382 35.8775 29.8171L38 31.0537L35.4926 35.4418L33.4058 34.2248C32.6923 34.8508 31.8693 35.3366 30.9792 35.6571V38H25.9644V35.6571C25.0844 35.3405 24.2705 34.8613 23.5641 34.2438L21.5074 35.4437L19 31.0556L21.0761 29.8462C20.9946 29.4024 20.9526 28.952 20.9508 28.5006C20.9513 28.0116 20.9996 27.5237 21.095 27.0443L19.2069 25.9437L21.7143 21.5556L23.6463 22.6834C24.334 22.1003 25.1195 21.6463 25.9656 21.3429V19H30.9805V21.3429C31.8344 21.6497 32.6265 22.1099 33.3186 22.7011L35.2826 21.5556L37.79 25.9437L35.8555 27.0715C35.9469 27.5417 35.9937 28.0196 35.9953 28.4987ZM25.3645 28.4987C25.3645 30.2473 26.7677 31.6648 28.4987 31.6648C29.33 31.6648 30.1272 31.3312 30.715 30.7375C31.3028 30.1437 31.633 29.3384 31.633 28.4987C31.633 26.7502 30.2298 25.3327 28.4987 25.3327C26.7677 25.3327 25.3645 26.7502 25.3645 28.4987Z" fill="#0557FF"/>
<path fill-rule="evenodd" clip-rule="evenodd" d="M31.7308 0C32.4317 0 33 0.578299 33 1.29167V9.04167H0V1.29167C0 0.578299 0.568254 0 1.26923 0H31.7308ZM25.8923 16.7955H30.9692C31.7708 16.7965 32.5244 17.1845 33 17.8411V11.625H0V19.375H23.3538C23.3559 17.9498 24.4918 16.7955 25.8923 16.7955ZM18.6742 21.9583L17.0953 24.7425C16.6226 25.4383 16.4439 26.2979 16.599 27.1289C16.7857 27.7846 17.208 28.3448 17.7819 28.6982L18.2776 28.9895V29.0192L17.57 29.4345C16.9877 29.7764 16.5625 30.3394 16.3877 31H1.26923C0.568254 31 0 30.4217 0 29.7083V21.9583H18.6742ZM3.80769 25.8333C3.80769 26.9034 4.66007 27.7708 5.71154 27.7708C6.763 27.7708 7.61538 26.9034 7.61538 25.8333C7.61538 24.7633 6.763 23.8958 5.71154 23.8958C4.66007 23.8958 3.80769 24.7633 3.80769 25.8333ZM3.80769 15.5C3.80769 16.5701 4.66007 17.4375 5.71154 17.4375C6.763 17.4375 7.61538 16.5701 7.61538 15.5C7.61538 14.4299 6.763 13.5625 5.71154 13.5625C4.66007 13.5625 3.80769 14.4299 3.80769 15.5ZM16.5 15.5C16.5 14.7866 17.0683 14.2083 17.7692 14.2083H27.9231C28.6241 14.2083 29.1923 14.7866 29.1923 15.5C29.1923 16.2134 28.6241 16.7917 27.9231 16.7917H17.7692C17.0683 16.7917 16.5 16.2134 16.5 15.5ZM5.71154 7.10417C4.66007 7.10417 3.80769 6.23672 3.80769 5.16667C3.80769 4.09661 4.66007 3.22917 5.71154 3.22917C6.763 3.22917 7.61538 4.09661 7.61538 5.16667C7.61538 6.23672 6.763 7.10417 5.71154 7.10417ZM17.7692 6.45833H27.9231C28.6241 6.45833 29.1923 5.88003 29.1923 5.16667C29.1923 4.4533 28.6241 3.875 27.9231 3.875H17.7692C17.0683 3.875 16.5 4.4533 16.5 5.16667C16.5 5.88003 17.0683 6.45833 17.7692 6.45833Z" fill="#0557FF"/>
</svg>
