<svg xmlns="http://www.w3.org/2000/svg">

<symbol id="twitter" viewBox="0 0 455.731 455.731">
  <g>
    <path d="M0,0v455.731h455.731V0H0z M361.271,163.944c0.104,2.676,0.161,5.362,0.161,8.067c0,108.339-87.831,196.18-196.18,196.18
          c-38.568,0-74.545-11.132-104.875-30.368c-0.007-0.001-0.014-0.002-0.02-0.003l0.02,0.003c0,0,0,0,0,0
          c59.293,8.843,101.06-28.888,101.06-28.888c-52.832-4.109-63.271-48.077-63.271-48.077c18.667,3.16,30.368-1.272,30.368-1.272
          c-59.465-13.912-54.407-68.329-54.407-68.329c13.77,8.228,29.733,8.864,29.733,8.864c-52.509-46.188-19.607-91.105-19.607-91.105
          c55.052,66.668,135.975,71.204,141.289,71.423c-1.167-5.011-1.784-10.23-1.784-15.592c0-37.998,30.814-68.803,68.841-68.803
          c19.825,0,37.685,8.37,50.25,21.78c3.483-0.977,6.861-2.031,10.088-3.103c19.493-6.501,33.415-13.932,33.415-13.932
          c-3.359,20.129-28.176,37.021-29.951,38.207c-0.066,0.047-0.104,0.066-0.104,0.066c0.038,0,0.085-0.009,0.123-0.009
          c19.265-1.927,38.948-10.107,38.948-10.107C389.428,141.433,365.19,160.859,361.271,163.944z"/>
  </g>
  </symbol>

<symbol id="facebook" viewBox="0 0 455 455">
    <g>
    <path  d="M0,0v455h455V0H0z M301.004,125.217H265.44
    c-7.044,0-14.153,7.28-14.153,12.696v36.264h49.647c-1.999,27.807-6.103,53.235-6.103,53.235h-43.798V385h-65.266V227.395h-31.771
    v-53.029h31.771v-43.356c0-7.928-1.606-61.009,66.872-61.009h48.366V125.217z"/>
    </g>  
</symbol>

<symbol id="linkedin" viewBox="0 0 512 512">
  <g>
    <path d="m475.074219 0h-438.148438c-20.394531 0-36.925781 16.53125-36.925781 36.925781v438.148438c0 20.394531 16.53125 36.925781 36.925781 36.925781h438.148438c20.394531 0 36.925781-16.53125 36.925781-36.925781v-438.148438c0-20.394531-16.53125-36.925781-36.925781-36.925781zm-293.464844 387h-62.347656v-187.574219h62.347656zm-31.171875-213.1875h-.40625c-20.921875 0-34.453125-14.402344-34.453125-32.402344 0-18.40625 13.945313-32.410156 35.273437-32.410156 21.328126 0 34.453126 14.003906 34.859376 32.410156 0 18-13.53125 32.402344-35.273438 32.402344zm255.984375 213.1875h-62.339844v-100.347656c0-25.21875-9.027343-42.417969-31.585937-42.417969-17.222656 0-27.480469 11.601563-31.988282 22.800781-1.648437 4.007813-2.050781 9.609375-2.050781 15.214844v104.75h-62.34375s.816407-169.976562 0-187.574219h62.34375v26.558594c8.285157-12.78125 23.109375-30.960937 56.1875-30.960937 41.019531 0 71.777344 26.808593 71.777344 84.421874zm0 0"/>
  </g>
</symbol>


</svg>