<svg width="16" height="16" viewBox="0 0 16 16" fill="none" xmlns="http://www.w3.org/2000/svg">
<path opacity="0.09959" fill-rule="evenodd" clip-rule="evenodd" d="M0 8C0 3.58172 3.58172 0 8 0C12.4162 0.00493789 15.9951 3.58377 16 8C16 12.4183 12.4183 16 8 16C3.58172 16 0 12.4183 0 8ZM10.6681 10.9853C10.781 10.9538 10.8782 10.8733 10.938 10.7618C11.0618 10.5299 10.9944 10.2298 10.7873 10.0906L7.87818 8.14142V2.4904C7.87818 2.21956 7.68159 2 7.43909 2C7.19659 2 7 2.21956 7 2.4904V8.69655L10.3356 10.9302C10.4355 10.9971 10.5551 11.0169 10.6681 10.9853Z" fill="#202020"/>
</svg>
